<svg xmlns="http://www.w3.org/2000/svg" viewBox="0 0 92.435 108.52"><path d="M81.4 108.52H11.036C4.953 108.52 0 104.131 0 98.732V9.788C0 4.393 4.953 0 11.036 0H81.4c6.087 0 11.036 4.393 11.036 9.788v88.944c.004 5.399-4.949 9.788-11.036 9.788z" fill="#fff"/><path d="M87.62 96.989a6.214 6.214 0 01-6.216 6.216H11.036a6.214 6.214 0 01-6.216-6.216V11.036a6.214 6.214 0 016.216-6.216H81.4a6.214 6.214 0 016.22 6.216V96.99z" fill="#af2009"/><path d="M71.255 91.094c-.5 0-1.019-.009-1.565-.028-6.454-.23-14.231-5.114-21.323-13.4-7.685-8.975-17.242-21.08-20.01-24.605v29.661c0 6.376 2.975 6.959 3.007 6.964a.437.437 0 01.363.477.409.409 0 01-.454.39c-.05 0-5.192-.211-8.18-.211s-8.134.207-8.185.211a.428.428 0 01-.454-.381.444.444 0 01.34-.487c.018 0 2.594-.73 2.594-6.688V26.859c0-5.164-2.148-6.532-2.171-6.546a.443.443 0 01-.193-.51.451.451 0 01.45-.3c.046 0 4.8.386 7.441.386s7.593-.381 7.643-.386a.439.439 0 01.188.849c-.018.009-2.392 1.005-2.392 6.307v22.8c3.571-3.6 18.945-19.106 25.877-26.033a1.986 1.986 0 00.753-1.625 2.282 2.282 0 00-1.1-1.386.448.448 0 01-.211-.51.435.435 0 01.454-.312c.041 0 4.678.321 7.322.321 3.094 0 8.185-.321 8.231-.321a.438.438 0 01.165.854c-.028.009-2.75.909-7.239 5.4L39.24 49.486c1.662 2.061 11.04 13.593 23.146 27.089 7.813 8.713 12.4 11.169 14.134 12.1.707.376 1.028.551 1.028.946.005 1.368-4.82 1.473-6.293 1.473z" fill="#fff"/><path d="M27.801 51.106l.372.477c.115.151 11.743 15.034 20.772 25.583C55.9 85.287 63.47 90.075 69.713 90.3c.542.018 1.051.032 1.538.032 3.163 0 4.958-.4 5.435-.684a14.012 14.012 0 00-.528-.294c-1.758-.941-6.436-3.448-14.341-12.261C48.587 62.344 38.506 49.803 38.4 49.67l-.187-.234L62.06 25.312a30.053 30.053 0 016-4.843c-1.607.1-4.682.216-6.61.216-1.841 0-4.949-.151-6.34-.248a2.378 2.378 0 01.629 1.253 2.706 2.706 0 01-.969 2.286c-7.831 7.827-26.437 26.6-26.625 26.786zm-11.454-30.77c.753.9 1.8 2.814 1.8 6.523v56.133c0 4.021-1.12 5.885-2.038 6.744 1.726-.06 4.871-.165 6.973-.165 2.029 0 5.04.1 6.794.156-1.037-.872-2.3-2.8-2.3-7.014V26.657c0-3.64 1.06-5.449 1.9-6.312-1.639.115-4.673.3-6.564.3-1.951.008-5.027-.194-6.565-.309z" fill="#e4d7b0"/></svg>